<?xml version="1.0" encoding="UTF-8"?>
<svg version="1.1" xmlns="http://www.w3.org/2000/svg" width="512" height="512">
<path d="M0 0 C1.22396484 -0.01546875 1.22396484 -0.01546875 2.47265625 -0.03125 C5.86210506 0.69928096 7.42021674 2.12146848 9.9375 4.5 C11.44384766 7.48095703 11.44384766 7.48095703 12.7265625 11.1328125 C13.09136215 12.15920334 13.09136215 12.15920334 13.46353149 13.20632935 C14.31256754 15.6299138 15.12848774 18.06276414 15.9375 20.5 C16.25473022 21.4540271 16.57196045 22.4080542 16.89880371 23.39099121 C19.050158 29.90046266 21.14899063 36.42596326 23.22607422 42.95947266 C24.32640315 46.41870899 25.43427782 49.87546694 26.54296875 53.33203125 C27.24523246 55.53110928 27.94707162 57.73032295 28.6484375 59.9296875 C28.97959564 60.96286102 29.31075378 61.99603455 29.65194702 63.06051636 C30.10339584 64.48438156 30.10339584 64.48438156 30.56396484 65.93701172 C30.8301059 66.77255585 31.09624695 67.60809998 31.37045288 68.46896362 C31.9375 70.5 31.9375 70.5 31.9375 72.5 C33.78565308 72.87717163 33.78565308 72.87717163 35.67114258 73.26196289 C41.6282045 74.58890789 47.393441 76.4399782 53.19921875 78.30859375 C54.92335747 78.85967552 54.92335747 78.85967552 56.68232727 79.42189026 C59.09916361 80.19567817 61.51534756 80.97150642 63.9309082 81.74926758 C67.6217782 82.93646368 71.31560136 84.11411591 75.00976562 85.29101562 C77.36476738 86.04630138 79.71959133 86.80214181 82.07421875 87.55859375 C83.7243824 88.08373817 83.7243824 88.08373817 85.40788269 88.61949158 C99.91017517 93.31026671 99.91017517 93.31026671 102.99407959 98.49343872 C105.19864309 103.18232579 106.6506287 108.15436633 108.1953125 113.08984375 C108.58443817 114.30773087 108.97356384 115.52561798 109.3744812 116.78041077 C110.40464652 120.00545861 111.42330695 123.23402885 112.43969727 126.46343994 C113.47190149 129.73515507 114.51601786 133.00306308 115.55859375 136.27148438 C117.08523592 141.06584361 118.60823373 145.86133815 120.12158203 150.65991211 C120.45619446 151.68266739 120.79080688 152.70542267 121.13555908 153.75917053 C121.9375 156.5 121.9375 156.5 122.19598389 158.6860199 C122.34524366 160.7957144 122.34524366 160.7957144 123.9375 163.5 C127.84958524 165.6149043 131.98841546 166.76028106 136.25 167.98046875 C138.14311974 168.56147113 140.03623883 169.14247561 141.92932129 169.72359943 C144.58600843 170.53084023 147.25044523 171.31073675 149.91497803 172.09161377 C153.90098218 173.26599161 157.87567168 174.47794473 161.85133362 175.68677998 C164.95290632 176.62941724 168.05635977 177.56382045 171.1652832 178.48197937 C176.3253964 180.01766297 181.46476887 181.596973 186.5234375 183.44262695 C187.28446777 183.71903519 188.04549805 183.99544342 188.82958984 184.28022766 C193.7336739 187.11804599 195.56163792 191.51162322 197.22753906 196.71142578 C197.62765198 197.94265167 198.02776489 199.17387756 198.44000244 200.44241333 C198.86140447 201.77659903 199.28243658 203.11090162 199.703125 204.4453125 C200.14499314 205.82129829 200.58769424 207.19701686 201.03118896 208.57247925 C201.95551008 211.44679419 202.87265301 214.32326268 203.78417969 217.20166016 C204.95288494 220.89161031 206.13490478 224.57711791 207.32172012 228.26127815 C208.23475003 231.09792183 209.14301951 233.9360701 210.04961395 236.77477646 C210.48406927 238.13465251 210.91947367 239.49422572 211.35584259 240.85348892 C211.96340387 242.75001266 212.5643783 244.64864275 213.16503906 246.54736328 C213.50827209 247.62704376 213.85150513 248.70672424 214.20513916 249.81912231 C214.9375 252.5 214.9375 252.5 214.9375 255.5 C215.58704147 255.67165176 216.23658295 255.84330353 216.9058075 256.02015686 C224.12965984 257.95631056 231.26646701 260.10962355 238.39453125 262.37109375 C239.54112717 262.73469498 240.68772308 263.0982962 241.86906433 263.47291565 C244.27375007 264.23713733 246.67798569 265.00277669 249.08178711 265.76977539 C251.53487663 266.55068236 253.98931916 267.32735124 256.44506836 268.09985352 C260.01454817 269.22273701 263.57988473 270.35797302 267.14453125 271.49609375 C268.78528374 272.00879066 268.78528374 272.00879066 270.45918274 272.53184509 C282.98264783 276.56772175 282.98264783 276.56772175 286.9375 282.5 C287.2734375 284.76953125 287.2734375 284.76953125 287.3125 287.3125 C287.34085938 288.14394531 287.36921875 288.97539062 287.3984375 289.83203125 C286.7596191 293.52959877 285.23820922 295.54080301 282.9375 298.5 C280.68845648 299.98759323 278.66374825 301.16299421 276.26171875 302.3203125 C275.59733292 302.65657654 274.93294708 302.99284058 274.24842834 303.33929443 C272.04763593 304.44917593 269.83653673 305.5367076 267.625 306.625 C266.05482543 307.41255547 264.48550577 308.20181743 262.91699219 308.99267578 C259.60926525 310.65872068 256.29789676 312.31719377 252.98388672 313.97070312 C245.66173533 317.63133825 238.3867343 321.3835448 231.10818481 325.12988281 C227.02225944 327.23154259 222.93286415 329.32642829 218.84375 331.421875 C217.19399977 332.26755735 215.54426019 333.11326049 213.89453125 333.95898438 C211.4158562 335.22958007 208.93717614 336.50016601 206.45849609 337.77075195 C200.70136905 340.72191767 194.94435006 343.673294 189.1875 346.625 C188.37704224 347.04054138 187.56658447 347.45608276 186.73156738 347.88421631 C174.57958756 354.11524768 162.43304511 360.35677985 150.28991699 366.6050415 C137.85135015 373.00509547 125.40532049 379.390514 112.95697021 385.77151489 C100.77659053 392.01537387 88.60205541 398.2704751 76.43182373 404.53408813 C66.96631306 409.40523524 57.4979914 414.27084257 48.01779175 419.11335754 C43.59519971 421.37329326 39.17874317 423.64382083 34.77392578 425.93823242 C27.37922327 429.77894797 20.04300022 433.5454378 12.3359375 436.72265625 C-7.58578693 445.25696282 -20.909552 459.20152718 -35.64257812 474.80371094 C-54.59595518 494.83025111 -78.33108484 511.42356913 -106.9921875 512.62255859 C-134.18932263 513.27633588 -134.18932263 513.27633588 -147.0625 509.5 C-148.27164063 509.17128906 -149.48078125 508.84257812 -150.7265625 508.50390625 C-164.7366846 504.31247221 -177.09135216 497.14187908 -188.0625 487.5 C-189.28839844 486.48873047 -189.28839844 486.48873047 -190.5390625 485.45703125 C-206.33615421 472.03194867 -216.23205462 454.1617939 -222.0625 434.5 C-222.40410156 433.36820312 -222.74570313 432.23640625 -223.09765625 431.0703125 C-229.72821207 404.36305044 -224.83012022 375.9229556 -211.6875 352.125 C-211.17968994 351.19892944 -211.17968994 351.19892944 -210.66162109 350.25415039 C-205.3031063 340.9526474 -198.07772645 333.24509212 -190.3203125 325.9140625 C-188.65894006 324.30724611 -186.99882353 322.69913035 -185.33984375 321.08984375 C-182.77596043 318.61179712 -180.20586444 316.14233355 -177.61279297 313.69482422 C-166.32605357 303.01223069 -158.33687102 293.2276355 -152.15887451 278.94769287 C-150.35224344 274.91432841 -148.24938204 271.04639358 -146.15625 267.15625 C-141.02495484 257.48597872 -136.04791148 247.73907789 -131.0814209 237.98339844 C-128.4477266 232.81041052 -125.80968119 227.63964207 -123.171875 222.46875 C-122.38444916 220.92489624 -122.38444916 220.92489624 -121.58111572 219.34985352 C-117.00998026 210.39040655 -112.4171754 201.44224676 -107.8125 192.5 C-106.36715118 189.69272703 -104.9218359 186.8854368 -103.4765625 184.078125 C-103.11915985 183.3839447 -102.7617572 182.6897644 -102.39352417 181.97454834 C-97.98221871 173.40447002 -93.58489348 164.82722254 -89.1875 156.25 C-88.7717572 155.4391394 -88.3560144 154.62827881 -87.92767334 153.79284668 C-84.97232141 148.02871523 -82.01735754 142.2643849 -79.0625 136.5 C-75.68777295 129.91652671 -72.31287079 123.33314327 -68.9375 116.75 C-68.52195862 115.93954224 -68.10641724 115.12908447 -67.67828369 114.29406738 C-61.08544169 101.43647155 -54.48085965 88.58495115 -47.86865234 75.73730469 C-43.85268832 67.93294905 -39.84396577 60.12494046 -35.84375 52.3125 C-35.40272949 51.45144653 -34.96170898 50.59039307 -34.50732422 49.70324707 C-32.38253175 45.55475924 -30.2586591 41.40580678 -28.13671875 37.25585938 C-26.58152551 34.21492408 -25.01806926 31.17844021 -23.44921875 28.14453125 C-21.75483164 24.86477738 -20.09892876 21.56803887 -18.45703125 18.26171875 C-17.5862619 16.5388985 -16.71517666 14.81623787 -15.84375 13.09375 C-15.45376831 12.29247681 -15.06378662 11.49120361 -14.6619873 10.66564941 C-11.42879148 4.34113323 -7.6805247 -0.09737591 0 0 Z M-4.0625 46.5 C-4.37364746 47.12753174 -4.68479492 47.75506348 -5.00537109 48.40161133 C-10.68857185 59.85039318 -16.41428758 71.26619353 -22.41162109 82.55395508 C-25.76177788 88.87853135 -28.9801748 95.2634474 -32.13720703 101.68652344 C-34.88454638 107.24388824 -37.75548062 112.73060933 -40.65234375 118.2109375 C-45.89597167 128.13661556 -51.00824753 138.1269629 -56.10070801 148.13085938 C-58.73740498 153.31007804 -61.37848641 158.48705994 -64.01953125 163.6640625 C-64.54223602 164.68880676 -65.0649408 165.71355103 -65.60348511 166.76934814 C-69.98564681 175.35701958 -74.39133713 183.93235395 -78.8125 192.5 C-80.16547525 195.12233876 -81.51836443 197.74472187 -82.87109375 200.3671875 C-83.20718658 201.01874817 -83.54327942 201.67030884 -83.88955688 202.34161377 C-88.23149873 210.76249735 -92.55273606 219.19400478 -96.875 227.625 C-97.71085159 229.25504789 -98.54670771 230.88509347 -99.38256836 232.51513672 C-103.31101019 240.17702411 -107.23718346 247.84006423 -111.15888977 255.50540161 C-112.96307738 259.03145007 -114.76827633 262.55698027 -116.57357788 266.0824585 C-117.42664656 267.74906804 -118.27922372 269.41592928 -119.1312561 271.08306885 C-119.93555769 272.65678887 -120.74051815 274.23017235 -121.54618835 275.80319214 C-122.30892024 277.2928037 -123.06996937 278.78327831 -123.82917786 280.27468872 C-125.57101395 283.67895157 -127.35121308 287.04404904 -129.25927734 290.35839844 C-129.59811447 290.95449921 -129.9369516 291.55059998 -130.28605652 292.1647644 C-131.19392166 293.74888905 -132.12099575 295.32196236 -133.04956055 296.89404297 C-134.3309911 299.42028643 -134.3309911 299.42028643 -133.42504883 301.78955078 C-132.0798778 303.79698077 -132.0798778 303.79698077 -129.0625 304.5 C-128.6406543 303.81188232 -128.21880859 303.12376465 -127.78417969 302.41479492 C-123.95921532 296.17873323 -120.12490942 289.94860802 -116.28005981 283.72479248 C-114.01506821 280.05510208 -111.77119581 276.37340716 -109.5390625 272.68359375 C-108.50564945 270.99712545 -107.4718249 269.31090921 -106.4375 267.625 C-105.97827148 266.85438232 -105.51904297 266.08376465 -105.04589844 265.28979492 C-102.29223133 260.84051751 -99.80993937 258.00880942 -95.0625 255.5 C-90.70437005 254.87741001 -88.65499076 255.18698601 -84.75 257.25 C-81.05258578 260.34550958 -80.28717633 261.89516905 -79.625 266.625 C-80.60306425 275.28785479 -86.48878818 283.05907023 -91.0625 290.3125 C-91.61558838 291.20251709 -92.16867676 292.09253418 -92.73852539 293.00952148 C-95.7389952 297.83232365 -98.78291553 302.62352172 -101.87109375 307.390625 C-102.47888672 308.34090576 -103.08667969 309.29118652 -103.71289062 310.27026367 C-104.8869356 312.10462875 -106.07409958 313.93067562 -107.27539062 315.74731445 C-107.80197266 316.57448975 -108.32855469 317.40166504 -108.87109375 318.25390625 C-109.34345459 318.97908447 -109.81581543 319.7042627 -110.30249023 320.45141602 C-111.27076373 322.45548457 -111.27076373 322.45548457 -110.5534668 324.39916992 C-108.45968473 327.34939011 -105.97220021 329.83513095 -103.3984375 332.359375 C-102.84636627 332.90861633 -102.29429504 333.45785767 -101.72549438 334.02374268 C-99.96748185 335.77059293 -98.2026311 337.51034601 -96.4375 339.25 C-95.2417292 340.43573591 -94.04641135 341.6219288 -92.8515625 342.80859375 C-89.92709747 345.71105085 -86.99648126 348.6071641 -84.0625 351.5 C-80.6277485 350.01977695 -78.40851006 348.08894692 -75.78077698 345.44532776 C-74.50862335 344.17296265 -74.50862335 344.17296265 -73.21076965 342.87489319 C-72.28858139 341.94237228 -71.36639313 341.00985138 -70.41625977 340.04907227 C-69.4291666 339.05813961 -68.44161625 338.06766219 -67.4536438 337.0776062 C-65.32875372 334.94639804 -63.20701006 332.81212297 -61.08761787 330.67544746 C-57.7351163 327.29588799 -54.37498807 323.92398157 -51.01365662 320.5532074 C-43.27166705 312.78713227 -35.53971551 305.01108796 -27.80784607 297.23493958 C-20.72354486 290.11026722 -13.63713954 282.98772222 -6.5425896 275.87325329 C-3.20265794 272.52336523 0.13233747 269.16866238 3.46362484 265.81017888 C5.53879803 263.72006717 7.61812421 261.63412506 9.69858932 259.54928207 C11.11922395 258.12312918 12.53481385 256.69195663 13.95024109 255.26063538 C14.80116333 254.40957214 15.65208557 253.55850891 16.52879333 252.68165588 C17.26379783 251.94221017 17.99880232 251.20276445 18.75607967 250.44091129 C22.78618205 246.85514145 26.48599056 244.71806038 31.9375 244.5 C36.42989284 245.94670278 39.7257222 247.19932094 41.9375 251.5 C43.26030205 255.75186374 43.02264356 258.64267193 41.06367588 262.67260742 C36.48578506 270.10093533 29.37478756 276.20125505 23.23852539 282.3125 C22.2816249 283.26911776 21.32494585 284.22595708 20.36846924 285.18299866 C17.79475275 287.75699976 15.21798482 290.3279257 12.64062047 292.89827347 C9.93889966 295.59370439 7.24004753 298.29200464 4.5408783 300.98999023 C-0.56032222 306.08809395 -5.66406439 311.18364517 -10.76874501 316.27826405 C-16.58457117 322.08287756 -22.39752722 327.89036174 -28.21025455 333.69807816 C-40.15783237 345.63522901 -52.10897505 357.56880449 -64.0625 369.5 C-62.20526623 373.53070124 -59.53532533 376.28284024 -56.3984375 379.359375 C-55.84636627 379.90861633 -55.29429504 380.45785767 -54.72549438 381.02374268 C-52.96748185 382.77059293 -51.2026311 384.51034601 -49.4375 386.25 C-48.2417292 387.43573591 -47.04641135 388.6219288 -45.8515625 389.80859375 C-42.92709747 392.71105085 -39.99648126 395.6071641 -37.0625 398.5 C-33.14856071 397.06139434 -29.74333074 395.21531668 -26.1875 393.04296875 C-25.35166634 392.53432785 -25.35166634 392.53432785 -24.49894714 392.01541138 C-22.68449365 390.90983399 -20.87346711 389.7987773 -19.0625 388.6875 C-17.79483976 387.91339022 -16.52701577 387.1395485 -15.2590332 386.3659668 C-7.05714178 381.35699721 1.12063194 376.30909621 9.28442383 371.23828125 C16.49648248 366.76120855 23.74584816 362.34710712 31.0012207 357.94067383 C38.32960268 353.4867204 45.63708826 348.99963165 52.9375 344.5 C61.19287689 339.41177259 69.46142061 334.34646058 77.75 329.3125 C85.00039412 324.90870385 92.23017353 320.47393334 99.4375 316 C107.59752346 310.93468192 115.79106193 305.92699771 124 300.94140625 C132.42226059 295.82265617 140.81526248 290.65715051 149.20532227 285.48583984 C157.57831112 280.32830475 165.97165764 275.20500143 174.37890625 270.10351562 C179.58931502 266.9397799 184.77577964 263.7426192 189.9375 260.5 C187.66851133 250.35789403 184.49262736 240.53955348 181.2668457 230.66967773 C180.36733545 227.91401959 179.47728059 225.1554233 178.58789062 222.39648438 C178.01618551 220.63783852 177.44393976 218.87936831 176.87109375 217.12109375 C176.60646835 216.29927109 176.34184296 215.47744843 176.06919861 214.63072205 C175.81876297 213.86885086 175.56832733 213.10697968 175.31030273 212.32202148 C174.98412209 211.32041237 174.98412209 211.32041237 174.65135193 210.29856873 C173.51888847 207.44529723 172.53247241 205.77256346 169.71182251 204.48039246 C168.78678925 204.17901871 167.86175598 203.87764496 166.90869141 203.56713867 C165.86065338 203.2205571 164.81261536 202.87397552 163.7328186 202.51689148 C162.59637909 202.15424698 161.45993958 201.79160248 160.2890625 201.41796875 C159.12498871 201.04013748 157.96091492 200.66230621 156.76156616 200.27302551 C154.29689023 199.47680799 151.83040933 198.68615962 149.36230469 197.90063477 C145.57893953 196.69274852 141.80511825 195.45789571 138.03125 194.22070312 C135.63855245 193.45146944 133.24533935 192.68383716 130.8515625 191.91796875 C129.71917145 191.54520309 128.5867804 191.17243744 127.42007446 190.78837585 C126.36573212 190.45755508 125.31138977 190.12673431 124.22509766 189.78588867 C123.29847321 189.48849289 122.37184875 189.19109711 121.41714478 188.88468933 C118.40021948 188.4166469 117.43037112 188.78693144 114.9375 190.5 C113.54269332 191.7337163 112.19759259 193.02466263 110.89086914 194.35131836 C110.10647964 195.1423143 109.32209015 195.93331024 108.51393127 196.74827576 C107.67531052 197.60349319 106.83668976 198.45871063 105.97265625 199.33984375 C105.10233261 200.21774063 104.23200897 201.09563751 103.33531189 202.00013733 C100.08069932 205.2833364 96.83511239 208.57537613 93.59014893 211.86810303 C90.41071015 215.09338648 87.22370981 218.31107502 84.03515625 221.52734375 C82.78026146 222.80713356 82.78026146 222.80713356 81.50001526 224.11277771 C80.7124736 224.90692581 79.92493195 225.70107391 79.11352539 226.51928711 C78.42609756 227.21718857 77.73866974 227.91509003 77.03041077 228.63414001 C72.43880252 232.72762466 69.10733759 233.95904925 63.08984375 233.71875 C60.30598653 233.43581714 58.3135561 233.0120357 55.9375 231.5 C53.26545562 227.30107311 53.11899392 222.30276941 53.9375 217.5 C57.62444393 210.83896094 63.69327327 205.48159526 69.0546875 200.1875 C69.91184357 199.33317383 70.76899963 198.47884766 71.65213013 197.59863281 C74.36755941 194.89432079 77.08988944 192.19708007 79.8125 189.5 C81.66452436 187.65801635 83.51609164 185.815573 85.3671875 183.97265625 C89.88535169 179.47644019 94.40918914 174.98599558 98.9375 170.5 C96.18793742 160.31540821 93.29727637 150.18281966 90.22412109 140.09106445 C89.613794 138.06345129 89.0168761 136.03175582 88.43310547 133.99633789 C87.57995324 131.02935929 86.68178759 128.0793852 85.7734375 125.12890625 C85.39788223 123.76796593 85.39788223 123.76796593 85.01473999 122.37953186 C83.90751236 118.91295472 83.06832997 116.32013817 80.05949402 114.13796997 C77.71793732 113.05288318 75.40563547 112.25229735 72.9375 111.5 C72.11785767 111.21508194 71.29821533 110.93016388 70.45373535 110.63661194 C67.81626341 109.72902041 65.16507382 108.88229293 62.50390625 108.046875 C61.54475815 107.74179016 60.58561005 107.43670532 59.59739685 107.12237549 C57.58890553 106.4847176 55.57962058 105.84955446 53.56958008 105.21679688 C50.48253197 104.24449826 47.39835378 103.26348055 44.31445312 102.28125 C42.35693259 101.66094765 40.39925582 101.04113804 38.44140625 100.421875 C37.51751602 100.12819031 36.59362579 99.83450562 35.64173889 99.53192139 C34.36416969 99.13085175 34.36416969 99.13085175 33.06079102 98.72167969 C32.31072281 98.48503601 31.5606546 98.24839233 30.78785706 98.00457764 C28.93556263 97.41230474 28.93556263 97.41230474 26.9375 97.5 C25.5308261 99.35500904 25.5308261 99.35500904 24.13671875 101.79296875 C23.57855469 102.72238281 23.02039063 103.65179688 22.4453125 104.609375 C21.84460938 105.62515625 21.24390625 106.6409375 20.625 107.6875 C19.34843048 109.8168706 18.07107031 111.94576737 16.79296875 114.07421875 C16.14634277 115.15493652 15.4997168 116.2356543 14.83349609 117.34912109 C12.07883915 121.92697359 9.26125361 126.46456364 6.4375 131 C1.37099868 139.15928064 -3.63551025 147.35357504 -8.62109375 155.5625 C-13.74565044 163.99431464 -18.91711301 172.3967778 -24.09423828 180.79638672 C-27.91604345 187.00092797 -31.72273795 193.21417466 -35.50585938 199.44238281 C-36.65749433 201.33748647 -37.81110227 203.23139274 -38.96679688 205.12402344 C-41.88083091 209.89654875 -44.76713777 214.6827284 -47.61328125 219.49609375 C-48.76284609 221.41416724 -49.91257934 223.33213981 -51.0625 225.25 C-51.5783667 226.13792236 -52.0942334 227.02584473 -52.62573242 227.94067383 C-55.49811941 232.69430825 -57.56445071 235.66479948 -63.0625 237.5 C-67.40403843 238.0426923 -69.48667482 237.80420953 -73.375 235.75 C-77.18913755 232.55676856 -77.18913755 232.55676856 -78.0625 229.5 C-78.51161461 223.9064817 -77.41851592 220.38162649 -74.5625 215.6875 C-73.97505005 214.6831189 -73.97505005 214.6831189 -73.37573242 213.65844727 C-71.95949419 211.2587324 -70.51422928 208.87841273 -69.0625 206.5 C-68.47807129 205.54029297 -67.89364258 204.58058594 -67.29150391 203.59179688 C-63.94287782 198.10642843 -60.57183421 192.63527538 -57.1875 187.171875 C-53.38392017 181.03008705 -49.62243771 174.86365683 -45.875 168.6875 C-41.53471138 161.54058073 -37.16240439 154.41511161 -32.75 147.3125 C-27.26279751 138.47863723 -21.85751417 129.59632481 -16.47290039 120.69973755 C-11.10912478 111.83806403 -5.69518734 103.00956704 -0.171875 94.24609375 C0.78626045 92.71358532 1.72543711 91.16900376 2.64208984 89.61132812 C3.9375 87.5 3.9375 87.5 5.36181641 85.74804688 C6.93081267 83.55060039 7.54799182 82.1955114 7.9375 79.5 C6.79144385 73.60997534 4.7697035 68.11419339 2.6875 62.5 C2.13656186 60.9475917 1.58835509 59.39421118 1.04296875 57.83984375 C-0.29418505 54.04791814 -1.66797412 50.27118373 -3.0625 46.5 C-3.3925 46.5 -3.7225 46.5 -4.0625 46.5 Z M199.4375 283.5 C197.98111309 284.4228926 196.52403176 285.34468991 195.06640625 286.265625 C194.25445801 286.77931641 193.44250977 287.29300781 192.60595703 287.82226562 C187.55100628 291.00045607 182.46169205 294.12295981 177.375 297.25 C176.25802734 297.93707031 175.14105469 298.62414062 173.99023438 299.33203125 C165.88216806 304.31516218 157.75642698 309.26869073 149.62280273 314.20996094 C141.27509947 319.2849973 132.95644194 324.40658979 124.63989258 329.5324707 C117.48254793 333.94121582 110.30990863 338.32383946 103.125 342.6875 C95.87460588 347.09129615 88.64482647 351.52606666 81.4375 356 C73.27747654 361.06531808 65.08393807 366.07300229 56.875 371.05859375 C48.44683536 376.1809321 40.04786805 381.34992918 31.65209961 386.52514648 C24.38739025 391.00028557 17.10578537 395.4466081 9.8125 399.875 C0.80753307 405.34337806 -8.14830633 410.88496364 -17.0625 416.5 C-16.4025 417.82 -15.7425 419.14 -15.0625 420.5 C-10.26346528 420.5 -7.18853411 418.82441561 -3.02734375 416.6953125 C-2.23461563 416.29730438 -1.44188751 415.89929626 -0.62513733 415.48922729 C1.92040227 414.20858565 4.46010391 412.91679168 7 411.625 C8.65134354 410.79357696 10.30303328 409.96284117 11.95507812 409.1328125 C20.89211849 404.63091221 29.77101671 400.02672999 38.61680603 395.34843445 C47.55470125 390.62968481 56.56133103 386.04679904 65.56835938 381.46179199 C70.74757804 378.82509502 75.92455994 376.18401359 81.1015625 373.54296875 C82.12630676 373.02026398 83.15105103 372.4975592 84.20684814 371.95901489 C92.79451958 367.57685319 101.36985395 363.17116287 109.9375 358.75 C112.55983876 357.39702475 115.18222187 356.04413557 117.8046875 354.69140625 C118.45624817 354.35531342 119.10780884 354.01922058 119.77911377 353.67294312 C128.19999667 349.33100162 136.63139942 345.00955716 145.0625 340.6875 C145.87690552 340.26998474 146.69131104 339.85246948 147.53039551 339.42230225 C152.50151372 336.87386423 157.472836 334.32582452 162.44421387 331.77789307 C166.58009696 329.65811377 170.71585306 327.53808682 174.8515625 325.41796875 C176.07479469 324.79091789 176.07479469 324.79091789 177.32273865 324.15119934 C181.38591772 322.0681891 185.44877059 319.98454653 189.51098633 317.8996582 C191.11018389 317.07892924 192.70938636 316.25820982 194.30859375 315.4375 C195.09637711 315.0331926 195.88416046 314.62888519 196.69581604 314.21232605 C201.64998811 311.67070057 206.60739375 309.13549317 211.56698608 306.60446167 C214.84746732 304.92970529 218.12643207 303.25199417 221.40515137 301.5737915 C222.95677053 300.78053439 224.50908859 299.98864271 226.06213379 299.19818115 C228.19556575 298.1121623 230.32655046 297.02148153 232.45703125 295.9296875 C233.08835464 295.60983887 233.71967804 295.28999023 234.37013245 294.96044922 C236.90772491 293.654924 238.90513076 292.53236924 240.9375 290.5 C236.27568932 288.92960995 231.61259043 287.36312992 226.94824219 285.80029297 C225.36096559 285.26784386 223.77404931 284.73431935 222.1875 284.19970703 C219.90978892 283.43240311 217.63081907 282.66894888 215.3515625 281.90625 C214.64005035 281.66563843 213.92853821 281.42502686 213.19546509 281.17712402 C206.79228558 279.04224273 204.94269992 279.9620702 199.4375 283.5 Z M-156.6953125 327.9296875 C-157.70040359 328.92622849 -157.70040359 328.92622849 -158.72579956 329.94290161 C-160.15131054 331.35893526 -161.57534712 332.77645442 -162.99804688 334.1953125 C-165.1504104 336.33807583 -167.31320033 338.46991246 -169.4765625 340.6015625 C-179.72724208 350.7608416 -179.72724208 350.7608416 -188.0625 362.5 C-188.42794922 363.11552734 -188.79339844 363.73105469 -189.16992188 364.36523438 C-199.89944325 383.41826324 -202.9952839 404.58498374 -198.09375 425.84765625 C-194.67520117 437.95501669 -189.7002352 447.53045167 -182.0625 457.5 C-181.59457031 458.15226563 -181.12664062 458.80453125 -180.64453125 459.4765625 C-168.41599666 475.35484434 -147.46002371 484.95212204 -128.0625 487.5 C-103.78530088 489.00441939 -82.94877762 483.05899167 -64.0625 467.5 C-58.53297867 462.53634545 -53.37182471 457.19339117 -48.1875 451.875 C-46.80694437 450.47431871 -45.42543869 449.07457315 -44.04296875 447.67578125 C-40.70513472 444.29450247 -37.38027457 440.90095889 -34.0625 437.5 C-39.26278992 431.2032546 -44.95676169 425.46404395 -50.73364258 419.69946289 C-51.80698964 418.62475871 -52.88012431 417.54984236 -53.95306396 416.47473145 C-56.84911642 413.57414493 -59.74829282 410.67670029 -62.64820313 407.77997136 C-65.68548328 404.74523177 -68.72031298 401.70804323 -71.75553894 398.67124939 C-76.84523949 393.57973376 -81.93703598 388.49032135 -87.0300293 383.40209961 C-92.92485356 377.51273425 -98.81604307 371.61975138 -104.70539171 365.7249108 C-109.76437137 360.66140204 -114.82528591 355.59983337 -119.8878414 350.53989977 C-122.91086793 347.5184349 -125.93320834 344.49629205 -128.95380592 341.47239876 C-131.78741931 338.63590904 -134.62344406 335.80185313 -137.46139526 332.96970367 C-138.50517921 331.92724787 -139.54810224 330.88392928 -140.59012413 329.83971214 C-142.00596751 328.42115982 -143.42516241 327.00595491 -144.84455872 325.59095764 C-145.63964749 324.79624589 -146.43473627 324.00153414 -147.25391865 323.18274021 C-151.16947608 319.53962738 -153.72691145 324.98066585 -156.6953125 327.9296875 Z " fill="#000000" transform="translate(225.0625,-0.5)"/>
</svg>
