<?xml version="1.0" encoding="UTF-8"?>
<svg version="1.1" xmlns="http://www.w3.org/2000/svg" width="512" height="512">
<path d="M0 0 C6.4338234 5.64637353 11.85959522 11.73976234 17.05859375 18.52734375 C18.04085937 19.75130859 18.04085937 19.75130859 19.04296875 21 C41.24868366 49.73419509 49.71109202 87.46969303 45.28955078 123.19238281 C41.28666698 150.85565934 30.05499163 175.21221851 12.05859375 196.52734375 C11.35992187 197.36136719 10.66125 198.19539062 9.94140625 199.0546875 C-13.19712798 225.77516564 -48.02548019 241.61473047 -82.94140625 244.52734375 C-119.49324673 246.40906243 -156.75065232 236.59492171 -184.44140625 211.77734375 C-185.61509766 210.66746094 -185.61509766 210.66746094 -186.8125 209.53515625 C-188.65098329 207.80124724 -190.53011301 206.22598301 -192.50390625 204.65234375 C-197.31944723 200.54896024 -201.07419949 195.50234411 -204.94140625 190.52734375 C-205.60140625 189.70621094 -206.26140625 188.88507813 -206.94140625 188.0390625 C-229.23744815 159.13512109 -237.50094163 121.53971358 -233.19140625 85.65234375 C-229.35407331 61.37588329 -220.51330289 37.76643573 -204.94140625 18.52734375 C-204.49394043 17.97449707 -204.04647461 17.42165039 -203.58544922 16.85205078 C-179.18450154 -13.04747221 -145.74464674 -31.18858572 -107.32739258 -35.27197266 C-67.29135412 -38.63937505 -30.46290516 -25.60825892 0 0 Z M-163.56640625 37.83984375 C-182.02937556 56.52808731 -190.39900176 81.34268843 -190.30493164 107.25 C-189.82923823 134.85290276 -177.64876432 156.79359175 -158.46875 176.00390625 C-139.83506725 193.63773285 -116.05092562 201.23822597 -90.84423828 200.99780273 C-66.21835156 200.26079495 -44.64904241 190.57469518 -26.94140625 173.52734375 C-26.22210938 172.83640625 -25.5028125 172.14546875 -24.76171875 171.43359375 C-22.29897708 169.0308795 -22.29897708 169.0308795 -19.94140625 166.52734375 C-19.94140625 166.19734375 -19.94140625 165.86734375 -19.94140625 165.52734375 C-20.90626953 165.33942261 -20.90626953 165.33942261 -21.890625 165.14770508 C-52.31793178 159.16587453 -79.68942568 150.4866611 -103.94140625 130.52734375 C-104.81539063 129.81964844 -105.689375 129.11195313 -106.58984375 128.3828125 C-137.61159937 102.0094272 -144.18108759 63.89642271 -147.94140625 25.52734375 C-152.88627174 25.52734375 -160.29851736 34.66222803 -163.56640625 37.83984375 Z " fill="#000000" transform="translate(349.94140625,151.47265625)"/>
<path d="M0 0 C1.30324219 -0.0309375 1.30324219 -0.0309375 2.6328125 -0.0625 C9.56652701 -0.10414393 15.21043072 0.80387044 20.7109375 5.23046875 C26.25949331 11.6282933 28.65702268 16.31451607 28.125 24.8125 C27.0428839 31.96922237 23.60256142 36.33842436 18.2265625 40.98828125 C12.5810311 44.59204931 6.84728702 44.58654267 0.375 44.5625 C-0.48480469 44.57861328 -1.34460938 44.59472656 -2.23046875 44.61132812 C-9.20616907 44.61662077 -14.53016369 43.29898675 -20.5 39.5 C-25.40708223 34.59291777 -27.54375389 29.34369169 -28 22.5 C-27.90084549 15.84425365 -25.46844869 9.96844869 -20.75 5.25 C-13.87160797 0.49298121 -8.09486 0.04720035 0 0 Z " fill="#000000" transform="translate(69.75,233.75)"/>
<path d="M0 0 C6.76538057 6.76538057 7.44701627 13.91329022 7.5 23 C7.520625 23.86882812 7.54125 24.73765625 7.5625 25.6328125 C7.60414393 32.56652701 6.69612956 38.21043072 2.26953125 43.7109375 C-4.1282933 49.25949331 -8.81451607 51.65702268 -17.3125 51.125 C-24.46922237 50.0428839 -28.83842436 46.60256142 -33.48828125 41.2265625 C-37.09204931 35.5810311 -37.08654267 29.84728702 -37.0625 23.375 C-37.07861328 22.51519531 -37.09472656 21.65539062 -37.11132812 20.76953125 C-37.11662077 13.79383093 -35.79898675 8.46983631 -32 2.5 C-22.71508186 -6.78491814 -10.66582244 -6.78734155 0 0 Z " fill="#000000" transform="translate(270.75,46.75)"/>
<path d="M0 0 C5.45400991 5.17753936 7.9964217 10.05475976 8.30078125 17.6796875 C8.3152781 19.41140206 8.318933 21.14323671 8.3125 22.875 C8.32861328 23.73480469 8.34472656 24.59460938 8.36132812 25.48046875 C8.36665232 32.49775624 7.33806469 38.21959874 2.6875 43.75 C-3.51427746 48.94218578 -7.72955831 51.33969001 -15.84765625 51.21875 C-21.70103207 50.62385155 -26.84930808 48.15069192 -31 44 C-35.75701879 37.12160797 -36.20279965 31.34486 -36.25 23.25 C-36.270625 22.38117188 -36.29125 21.51234375 -36.3125 20.6171875 C-36.35414393 13.68347299 -35.44612956 8.03956928 -31.01953125 2.5390625 C-21.74255806 -5.50645407 -10.37772796 -8.24259732 0 0 Z " fill="#000000" transform="translate(270,419)"/>
<path d="M0 0 C1.10988281 -0.02578125 2.21976562 -0.0515625 3.36328125 -0.078125 C12.33431441 0.80738239 18.79039827 7.98554851 24.59375 14.3359375 C29.21153772 20.06289972 31.02869041 25.39526541 30.625 32.75 C29.71789444 38.92898966 26.64292303 43.43765671 22.125 47.625 C16.35934281 51.46877146 11.22394961 52.67320397 4.30078125 52.02734375 C-5.20538142 49.96078665 -12.87108969 41.8636706 -18.5 34.25 C-22.16050976 28.19122522 -21.87710868 22.15622794 -21.3125 15.25 C-19.77501619 9.17840789 -16.22392204 5.90737407 -11.21484375 2.37890625 C-7.48920719 0.16800488 -4.24708024 0.05878312 0 0 Z " fill="#000000" transform="translate(383.3125,361.75)"/>
<path d="M0 0 C5.09620539 3.01237564 8.70841667 7.93775001 10.5625 13.5 C10.70834712 15.60075949 10.78335655 17.70688549 10.8125 19.8125 C10.83828125 20.92238281 10.8640625 22.03226562 10.890625 23.17578125 C9.9524824 32.6800593 1.6692809 40.12666679 -5.3125 46 C-10.47167363 49.61758788 -16.458664 50.84241274 -22.70703125 50.3046875 C-28.39459704 49.10844995 -32.5710732 46.3664268 -36.625 42.3125 C-40.48110956 36.32888172 -41.93338811 30.80782708 -41.0546875 23.73828125 C-38.23597773 13.51599836 -29.29059402 4.92802823 -20.4375 -0.5 C-14.1537238 -2.59459207 -6.12809057 -2.6958848 0 0 Z " fill="#000000" transform="translate(139.4375,363.5)"/>
<path d="M0 0 C4.47694471 4.3559462 6.89133912 10.12016745 7.06640625 16.37109375 C6.19610607 26.90350209 -0.49289344 34.27282909 -8.26171875 40.94140625 C-15.27172067 46.31876447 -21.23435967 46.71662225 -30 46 C-36.07159211 44.46251619 -39.34262593 40.91142204 -42.87109375 35.90234375 C-45.08199512 32.17670719 -45.19121688 28.93458024 -45.25 24.6875 C-45.27578125 23.57761719 -45.3015625 22.46773437 -45.328125 21.32421875 C-44.44261761 12.35318559 -37.26445149 5.89710173 -30.9140625 0.09375 C-21.10687407 -7.81402249 -9.87866795 -7.90293436 0 0 Z " fill="#000000" transform="translate(407,104)"/>
<path d="M0 0 C12.66853479 12.24251327 12.66853479 12.24251327 13.54296875 20.18359375 C13.62397349 26.94748988 13.64242746 32.72678942 9.20703125 38.1328125 C3.70825195 43.17797016 -0.57503615 45.27858506 -8.10546875 45.3828125 C-9.21535156 45.40859375 -10.32523438 45.434375 -11.46875 45.4609375 C-20.43978316 44.57543011 -26.89586702 37.39726399 -32.69921875 31.046875 C-37.31700647 25.31991278 -39.13415916 19.98754709 -38.73046875 12.6328125 C-37.82336319 6.45382284 -34.74839178 1.94515579 -30.23046875 -2.2421875 C-20.17283323 -8.94727784 -9.1304963 -7.86374276 0 0 Z " fill="#000000" transform="translate(136.79296875,104.8671875)"/>
<path d="M0 0 C0.85980469 -0.01611328 1.71960938 -0.03222656 2.60546875 -0.04882812 C9.58116907 -0.05412077 14.90516369 1.26351325 20.875 5.0625 C25.78208223 9.96958223 27.91875389 15.21880831 28.375 22.0625 C28.27616071 27.95991081 26.60506929 32.55241761 22.8125 37.0625 C15.1752107 43.45650965 10.05932227 44.51926569 0.4375 44.625 C-0.85317383 44.66850586 -0.85317383 44.66850586 -2.16992188 44.71289062 C-9.54346588 44.7851258 -15.39464301 43.0781927 -21.21484375 38.453125 C-26.27469612 32.46542684 -28.25639102 27.61238683 -27.75 19.75 C-26.6678839 12.59327763 -23.22756142 8.22407564 -17.8515625 3.57421875 C-12.2060311 -0.02954931 -6.47228702 -0.02404267 0 0 Z " fill="#000000" transform="translate(441.875,233.6875)"/>
</svg>
